<svg id="Capa_1" data-name="Capa 1" xmlns="http://www.w3.org/2000/svg" viewBox="0 0 279.02 283.92"><title>2</title><circle cx="139.51" cy="141.96" r="90.93" fill="#1a1a1a"/><path d="M78,121.47v14.05H72.84V111.28h4.88l8.4,14.55,8.65-14.55h4.59v24.24H94.17V121.67L88,132.93H84.38Z" fill="#f3f3f3"/><path d="M118.59,133.82a10.87,10.87,0,0,1-6.35,2,9.61,9.61,0,0,1-6.24-2,6.18,6.18,0,0,1-2.42-5,6.41,6.41,0,0,1,2.65-5.46,13,13,0,0,1,6.81-2.31,9.29,9.29,0,0,0,3.87-1,2.28,2.28,0,0,0,1.1-2,2.69,2.69,0,0,0-1.08-2.15,4.62,4.62,0,0,0-3-.88,6.21,6.21,0,0,0-5,2.4l-4.73-1.59a10.8,10.8,0,0,1,9.7-5.14,9.29,9.29,0,0,1,6.62,2.28,8.46,8.46,0,0,1,2.61,6.09v13a17.85,17.85,0,0,0,.29,3.43h-4.33A7.24,7.24,0,0,1,118.59,133.82Zm-.29-9.52a10,10,0,0,1-3.52,1,11.05,11.05,0,0,0-4.72,1.26,2.63,2.63,0,0,0-1.29,2.26,2.3,2.3,0,0,0,1.1,1.95,5,5,0,0,0,2.94.76,5.91,5.91,0,0,0,3.76-1.37,5,5,0,0,0,1.73-4.2Z" fill="#f3f3f3"/><path d="M133.42,112.87a7.83,7.83,0,0,1,5.51-2.17,10.37,10.37,0,0,1,5.4,1.42l-3,3.86a4.41,4.41,0,0,0-2.37-.66,4.76,4.76,0,0,0-3.46,1.43Q134,118.18,134,122v13.56h-5.2V111.28h4.07Z" fill="#f3f3f3"/><path d="M151.34,111.28v24.24h-5.19V111.28Zm15.3,0L156,123.4l10.68,12.12h-6.47l-10.7-12.12,10.68-12.12Z" fill="#f3f3f3"/><path d="M174.06,125.42a6.16,6.16,0,0,0,1.4,4.22,5.41,5.41,0,0,0,4.49,1.84,5.59,5.59,0,0,0,5-2.48l4.7,1.39q-2.72,5.42-9.66,5.42a10.76,10.76,0,0,1-8.1-3.26q-3.16-3.26-3.16-9.15a13.07,13.07,0,0,1,3-9,11,11,0,0,1,15.91,0,13.07,13.07,0,0,1,3,9,18.94,18.94,0,0,1-.11,2Zm11.2-4a6.19,6.19,0,0,0-1.4-4.21,5.69,5.69,0,0,0-8.4,0,6.14,6.14,0,0,0-1.4,4.21Z" fill="#f3f3f3"/><path d="M206.18,111.25v4H201v13a3,3,0,0,0,.94,2.31c.63.57,2.05.86,4.26.86v4c-3.77.39-6.45-.16-8-1.64a8,8,0,0,1-2.37-6.15V115.29h-2.31v-4Z" fill="#f3f3f3"/><path d="M78,158.87v14.06H72.84V148.69h4.88l8.4,14.54,8.65-14.54h4.59v24.24H94.17V159.08L88,170.33H84.38Z" fill="#f3f3f3"/><path d="M118.59,171.23a10.94,10.94,0,0,1-6.35,2,9.56,9.56,0,0,1-6.24-2,6.18,6.18,0,0,1-2.42-5,6.39,6.39,0,0,1,2.65-5.45A13,13,0,0,1,113,158.5a9.11,9.11,0,0,0,3.87-1.06,2.26,2.26,0,0,0,1.1-2,2.67,2.67,0,0,0-1.08-2.15,4.56,4.56,0,0,0-3-.88,6.23,6.23,0,0,0-5,2.39l-4.73-1.58a10.78,10.78,0,0,1,9.7-5.14,9.29,9.29,0,0,1,6.62,2.28,8.46,8.46,0,0,1,2.61,6.09v13a18,18,0,0,0,.29,3.44h-4.33A7.56,7.56,0,0,1,118.59,171.23Zm-.29-9.53a9.77,9.77,0,0,1-3.52,1,11.05,11.05,0,0,0-4.72,1.26,2.65,2.65,0,0,0-1.29,2.27,2.3,2.3,0,0,0,1.1,1.94,5,5,0,0,0,2.94.77,6,6,0,0,0,3.76-1.37,5.06,5.06,0,0,0,1.73-4.2Z" fill="#f3f3f3"/><path d="M139.8,148.66v4h-5.2v13a3,3,0,0,0,.94,2.31q.94.87,4.26.87v4c-3.77.38-6.45-.16-8-1.65a8,8,0,0,1-2.37-6.14V152.7H127.1v-4Z" fill="#f3f3f3"/><path d="M161,165.48l4.47,2.34c-2.32,3.6-5.8,5.4-10.41,5.4a11.79,11.79,0,0,1-8.39-3.26q-3.45-3.27-3.45-9.15t3.31-9.15a11.59,11.59,0,0,1,8.53-3.26q6.92,0,10.36,5.13L160.93,156a6.55,6.55,0,0,0-5.83-3.23,6,6,0,0,0-4.82,2.15,10.57,10.57,0,0,0,0,11.86,6,6,0,0,0,4.82,2.15A6.75,6.75,0,0,0,161,165.48Z" fill="#f3f3f3"/><path d="M174.4,148.69v24.24h-5.19V148.69Zm8.4,8.32a4.74,4.74,0,0,0-3.46-1.43,4.53,4.53,0,0,0-3.46,1.58q-1.45,1.56-1.45,5.06h-5.19q0-3.28,3-7.13a8.79,8.79,0,0,1,7.13-3.84,10.27,10.27,0,0,1,7.13,2.69,8.81,8.81,0,0,1,3,6.84V172.9h-5.19V161.36A5.84,5.84,0,0,0,182.8,157Z" fill="#f3f3f3"/></svg>