<svg id="Capa_1" data-name="Capa 1" xmlns="http://www.w3.org/2000/svg" viewBox="0 0 380.19 265.05"><title>15</title><path d="M324.12,125.26l-14.43.49-7.22.24h-.22a.83.83,0,0,1-.21,0,.78.78,0,0,1-.27-.09.89.89,0,0,1-.45-1,2.82,2.82,0,0,1,.1-.31l.09-.22.2-.43a3.11,3.11,0,0,1,.26-.46,2.21,2.21,0,0,1,.4-.44,6.15,6.15,0,0,1,.82-.58,22.59,22.59,0,0,1,3.37-1.55,46.73,46.73,0,0,1,7-2c1.18-.24,2.39-.51,3.6-.64l3.6-.4,3.61-.42.22,0,.1,0a.83.83,0,0,0,.22-.08.93.93,0,0,0,.34-.31,9.12,9.12,0,0,0,.5-1.42l2.21-6.87,1,1.43c-2.44.06-4.88,0-7.32,0s-4.88-.06-7.32-.13-4.87-.16-7.31-.25q-1.83-.06-3.66-.18a1.85,1.85,0,0,1-1-.29A1.6,1.6,0,0,1,302,109l-.27-.37-1.06-1.5.16-.13,1.28,1.31a1.29,1.29,0,0,0,1.33.62c1.22-.09,2.44-.17,3.66-.23,2.44-.12,4.87-.28,7.31-.36s4.88-.16,7.31-.23,4.88-.11,7.32-.08h1.53l-.5,1.41-2.41,6.8-.31.85a3.43,3.43,0,0,1-.52,1.07,2.79,2.79,0,0,1-1,.84,3,3,0,0,1-.64.22l-.33,0-.23,0-3.58.28-3.58.29a35.14,35.14,0,0,0-3.52.52,45.08,45.08,0,0,0-6.89,1.72,21.76,21.76,0,0,0-3.23,1.37,4.56,4.56,0,0,0-.67.44,1.35,1.35,0,0,0-.21.21,2.25,2.25,0,0,0-.19.32l-.19.38-.09.2s-.08.19-.05.11a.19.19,0,0,0-.09-.2h-.06s-.05,0,0,0h.23l7.22,0,14.43.07Z" fill="#1a1a1a"/><path d="M300.72,107.55c-.15.08-.51-.31-1.06-1a3,3,0,0,0-3-1.19c-.39.07-1-.26-.85-.59,0-.09.5-.3,2.4.36a4.11,4.11,0,0,1,2.27,1.42C300.69,106.83,300.84,107.48,300.72,107.55Z" fill="none" stroke="#1a1a1a" stroke-miterlimit="10" stroke-width="2.11"/><path d="M306.38,127.82a1.71,1.71,0,0,0-1.78,1.78,1.65,1.65,0,0,0,1.65,1.44,1.69,1.69,0,0,0,1.64-1.84A1.65,1.65,0,0,0,306.38,127.82Z" fill="none" stroke="#1a1a1a" stroke-miterlimit="10" stroke-width="1.05"/><path d="M319.67,127.82a1.7,1.7,0,0,0-1.77,1.78,1.64,1.64,0,0,0,1.64,1.44,1.69,1.69,0,0,0,1.65-1.84A1.65,1.65,0,0,0,319.67,127.82Z" fill="none" stroke="#1a1a1a" stroke-miterlimit="10" stroke-width="1.05"/><line x1="325.44" y1="109.15" x2="322.67" y2="118.59" fill="none" stroke="#1a1a1a" stroke-miterlimit="10" stroke-width="0.53"/><line x1="322.22" y1="109.15" x2="319.72" y2="118.9" fill="none" stroke="#1a1a1a" stroke-miterlimit="10" stroke-width="0.53"/><line x1="319.21" y1="108.99" x2="317.05" y2="119.13" fill="none" stroke="#1a1a1a" stroke-miterlimit="10" stroke-width="0.53"/><line x1="316.21" y1="109.15" x2="314.01" y2="119.7" fill="none" stroke="#1a1a1a" stroke-miterlimit="10" stroke-width="0.53"/><line x1="313.35" y1="109.13" x2="310.96" y2="120.36" fill="none" stroke="#1a1a1a" stroke-miterlimit="10" stroke-width="0.53"/><line x1="310.46" y1="108.99" x2="308.02" y2="120.91" fill="none" stroke="#1a1a1a" stroke-miterlimit="10" stroke-width="0.53"/><path d="M302.77,109.24l2.65,5.22a8.82,8.82,0,0,1,.67,1.77l1.34,5.07" fill="none" stroke="#1a1a1a" stroke-miterlimit="10" stroke-width="0.99"/><line x1="307.43" y1="109.29" x2="306.02" y2="115.95" fill="none" stroke="#1a1a1a" stroke-miterlimit="10" stroke-width="0.53"/><line x1="328.09" y1="111.88" x2="304.3" y2="112.25" fill="none" stroke="#1a1a1a" stroke-miterlimit="10" stroke-width="0.53"/><line x1="327" y1="115.11" x2="305.85" y2="115.25" fill="none" stroke="#1a1a1a" stroke-miterlimit="10" stroke-width="0.53"/><path d="M291.6,109.23c1.49-.15,3-.23,4.46-.3a11.1,11.1,0,0,1,2.23-.05,6.8,6.8,0,0,1,2.2.67v.14a7,7,0,0,1-2.24.51A11.14,11.14,0,0,1,296,110c-1.47-.18-2.95-.37-4.42-.62Z" fill="#1a1a1a"/><path d="M290,111.46c2-.16,4-.25,6-.33a19.93,19.93,0,0,1,3-.06,11.39,11.39,0,0,1,3,.66v.13a11.25,11.25,0,0,1-3,.52,18.89,18.89,0,0,1-3-.19c-2-.17-4-.35-6-.6Z" fill="#1a1a1a"/><path d="M288.38,113.83c2.36-.16,4.72-.25,7.08-.33a27.89,27.89,0,0,1,3.54-.06,15.57,15.57,0,0,1,3.53.66v.13a15.62,15.62,0,0,1-3.55.52,26.25,26.25,0,0,1-3.54-.19c-2.35-.17-4.71-.35-7.07-.6Z" fill="#1a1a1a"/><path d="M281.64,139.8l2.95-3a.9.9,0,0,0,.09-1.4,33.57,33.57,0,0,1-6.56-18.18,31.57,31.57,0,0,1,4.71-18.82,32,32,0,0,1,32.95-14.64,34.18,34.18,0,0,1,27.78,40.15,32,32,0,0,1-36.72,25.12,33.44,33.44,0,0,1-12.78-4.82.9.9,0,0,0-1.29.16l-3.21,3.23a1.93,1.93,0,0,0-.17.21l.16.18a2.77,2.77,0,0,1,.74,2.48,3.29,3.29,0,0,1-1,1.72q-10.69,11.06-21.41,22.1c-1.58,1.63-3.12,3.3-4.78,4.83a8.22,8.22,0,0,1-7.26,2.06,8.67,8.67,0,0,1-4.67-14.61c4.48-4.66,9-9.3,13.5-13.95l12.13-12.53a2.88,2.88,0,0,1,3.46-.86,8.68,8.68,0,0,1,1.14.76Zm52.73-12.67a23,23,0,0,0,1.9-13.1c-1.23-9-5.84-15.71-13.83-19.86-8.39-4.36-16.91-4.18-25,.79A23.39,23.39,0,0,0,286,113.41a25.9,25.9,0,0,0,17,26.84,26.32,26.32,0,0,0,8.85,1.58C322.2,141.35,329.9,136.66,334.37,127.13ZM262.93,175.8a1.43,1.43,0,0,0,1.65-.31c.6-.59,1.17-1.2,1.75-1.8L286,153.37a1.52,1.52,0,0,0,.42-1.76,1.48,1.48,0,0,0-2.48-.42c-.94.94-1.86,1.91-2.78,2.86L262.62,173.2a1.72,1.72,0,0,0-.59,1.23A1.46,1.46,0,0,0,262.93,175.8Z"/><path d="M262,174.43a1.46,1.46,0,0,0,.9,1.37,1.43,1.43,0,0,0,1.65-.31c.6-.59,1.17-1.2,1.75-1.8L286,153.37a1.52,1.52,0,0,0,.42-1.76,1.48,1.48,0,0,0-2.48-.42c-.94.94-1.86,1.91-2.78,2.86L262.62,173.2A1.72,1.72,0,0,0,262,174.43Z" fill="#fff"/><text transform="translate(35.96 122.51)" font-size="48.97" fill="#010101" font-family="OgonekUnicase, Ogonek Unicase">Market<tspan fill="#e11b4d"><tspan x="0" y="58.76">Match</tspan></tspan></text></svg>