<?xml version="1.0" encoding="utf-8"?>
<!-- Generator: Adobe Illustrator 24.2.3, SVG Export Plug-In . SVG Version: 6.00 Build 0)  -->
<svg version="1.1" id="Capa_1" xmlns="http://www.w3.org/2000/svg" xmlns:xlink="http://www.w3.org/1999/xlink" x="0px" y="0px"
	 viewBox="0 0 800 154" style="enable-background:new 0 0 800 154;" xml:space="preserve">
<style type="text/css">
	.st0{fill:#1A1A1A;}
	.st1{fill:none;stroke:#1A1A1A;stroke-width:6.2;stroke-miterlimit:10;}
	.st2{fill:none;stroke:#1A1A1A;stroke-width:3.1;stroke-miterlimit:10;}
	.st3{fill:none;stroke:#1A1A1A;stroke-width:1.55;stroke-miterlimit:10;}
	.st4{fill:none;stroke:#1A1A1A;stroke-width:2.91;stroke-miterlimit:10;}
	.st5{fill:#010101;}
	.st6{font-family:'Helvetica';}
	.st7{font-size:70.5px;}
	.st8{fill:#E11B4D;}
</style>
<path class="st0" d="M585.4,97.8l-42.5,1.5l-21.3,0.7H521h-0.2c-0.1,0-0.3,0-0.4,0c-0.3,0-0.5-0.1-0.8-0.3c-1-0.5-1.6-1.7-1.3-2.8
	c0-0.1,0.1-0.3,0.1-0.4l0.1-0.2l0.1-0.3l0.3-0.6c0.2-0.4,0.4-0.9,0.6-1.3c0.2-0.5,0.5-0.9,0.8-1.4c0.1-0.1,0.2-0.2,0.3-0.4
	c0.1-0.1,0.2-0.2,0.3-0.3c0.2-0.2,0.4-0.4,0.6-0.6c0.8-0.6,1.6-1.2,2.4-1.7c3.2-1.8,6.5-3.3,9.9-4.6c1.6-0.6,3.4-1.3,5.1-1.8
	s3.5-1,5.2-1.5c3.5-0.9,6.9-1.7,10.4-2.5s7-1.4,10.6-1.9s7.1-0.9,10.6-1.2l10.6-1.1l0.6-0.1l0.3-0.1c0.2-0.1,0.4-0.1,0.6-0.2
	c0.4-0.2,0.7-0.5,1-0.9c0.3-0.5,0.5-1.1,0.7-1.7l0.8-2.5c2.1-6.8,4.2-13.5,6.5-20.2l3.1,4.2c-7.2,0.1-14.4,0.1-21.5,0.1
	s-14.4-0.2-21.6-0.4s-14.4-0.4-21.6-0.7c-3.6-0.2-7.2-0.3-10.8-0.5c-0.5,0-1-0.1-1.5-0.2c-0.5-0.1-1-0.4-1.5-0.7
	c-0.5-0.3-0.9-0.7-1.2-1.1l-0.8-1.1c-1.1-1.5-2.1-2.9-3.1-4.4l0.5-0.4c1.2,1.3,2.5,2.6,3.8,3.9l0.9,1c0.3,0.2,0.6,0.4,0.9,0.6
	c0.3,0.1,0.7,0.2,1,0.3c0.4,0,0.8,0,1.1,0c3.6-0.2,7.2-0.5,10.8-0.7c7.2-0.4,14.4-0.8,21.5-1c7.2-0.3,14.4-0.5,21.5-0.7
	s14.4-0.5,21.6-0.5h4.5l-1.5,4.2c-2.3,6.7-4.7,13.4-7.2,20l-0.9,2.5c-0.2,0.4-0.2,0.7-0.5,1.4c-0.3,0.6-0.6,1.2-1,1.7
	c-0.8,1.1-1.8,1.9-3,2.5c-0.6,0.3-1.2,0.5-1.9,0.6c-0.3,0.1-0.7,0.1-1,0.2h-0.7L576.1,81c-3.5,0.3-7,0.6-10.5,0.9s-6.9,1-10.3,1.6
	s-6.9,1.3-10.3,2.2c-1.7,0.4-3.4,0.8-5.1,1.3s-3.3,1-4.9,1.6c-3.3,1.1-6.4,2.4-9.5,4c-0.7,0.4-1.4,0.8-2,1.3l-0.4,0.3
	c0,0-0.1,0.1-0.1,0.1c0,0-0.1,0.1-0.1,0.1c-0.2,0.3-0.4,0.6-0.6,0.9c-0.2,0.4-0.4,0.7-0.5,1.1l-0.3,0.6l-0.1,0.3c0,0-0.1,0.1,0,0.1
	s0,0,0-0.1c0-0.2-0.1-0.5-0.3-0.6c-0.1,0-0.1,0-0.2-0.1h0.7l21.3,0.1l42.5,0.2L585.4,97.8z"/>
<path class="st1" d="M516.5,45.6c-0.4,0.2-1.5-0.9-3.1-2.9c-2-2.7-5.4-4.1-8.7-3.5c-1.2,0.2-2.9-0.8-2.5-1.8
	c0.1-0.3,1.5-0.9,7.1,1.1c1.5,0.4,5.1,1.7,6.7,4.2C516.4,43.5,516.8,45.4,516.5,45.6z"/>
<path class="st2" d="M533.1,105.3c-2.8-0.1-5.1,2-5.2,4.8c0,0.2,0,0.3,0,0.5c0.3,2.4,2.4,4.3,4.8,4.3c2.8-0.1,4.9-2.4,4.9-5.1
	c0-0.1,0-0.2,0-0.3C537.2,107.2,535.4,105.5,533.1,105.3z"/>
<path class="st2" d="M572.3,105.3c-2.8-0.1-5.1,2-5.2,4.7c0,0.2,0,0.3,0,0.5c0.3,2.4,2.4,4.3,4.8,4.3c2.8-0.1,4.9-2.4,4.9-5.1
	c0-0.1,0-0.2,0-0.3C576.4,107.2,574.6,105.5,572.3,105.3z"/>
<line class="st3" x1="589.3" y1="50.3" x2="581.1" y2="78.1"/>
<line class="st3" x1="579.8" y1="50.3" x2="572.4" y2="79"/>
<line class="st3" x1="570.9" y1="49.8" x2="564.6" y2="79.7"/>
<line class="st3" x1="562.1" y1="50.3" x2="555.6" y2="81.4"/>
<line class="st3" x1="553.7" y1="50.2" x2="546.6" y2="83.3"/>
<line class="st3" x1="545.2" y1="49.8" x2="538" y2="84.9"/>
<path class="st4" d="M522.5,50.6l7.8,15.4c0.9,1.7,1.5,3.4,2,5.2l3.9,14.9"/>
<line class="st3" x1="536.2" y1="50.7" x2="532.1" y2="70.3"/>
<line class="st3" x1="597.1" y1="58.3" x2="527" y2="59.4"/>
<line class="st3" x1="593.9" y1="67.9" x2="531.6" y2="68.3"/>
<path class="st0" d="M489.6,50.5c2.2-0.2,4.4-0.3,6.6-0.5s4.4-0.3,6.6-0.3c1.1,0,2.2-0.2,3.3-0.2c1.1-0.1,2.2,0,3.3,0.1
	c1.1,0.2,2.2,0.4,3.2,0.7c1.1,0.3,2.2,0.7,3.2,1.3v0.4c-1.1,0.5-2.2,0.8-3.3,1c-1.1,0.2-2.2,0.4-3.3,0.5c-1.1,0.1-2.2,0-3.3-0.1
	c-1.1-0.2-2.2-0.4-3.3-0.5c-2.2-0.2-4.3-0.5-6.5-0.8s-4.3-0.6-6.5-1V50.5z"/>
<path class="st0" d="M484.8,57.1c3-0.2,5.9-0.4,8.8-0.6s5.9-0.3,8.8-0.4c1.5,0,3-0.2,4.4-0.3c1.5-0.1,2.9-0.1,4.4,0.1
	c1.5,0.1,2.9,0.4,4.4,0.7c1.5,0.3,3,0.7,4.4,1.3v0.4c-1.4,0.5-2.9,0.8-4.4,1.1c-1.5,0.2-2.9,0.4-4.4,0.5c-1.5,0.1-2.9,0-4.4-0.1
	c-1.5-0.2-2.9-0.3-4.4-0.5c-2.9-0.2-5.9-0.5-8.8-0.8c-2.9-0.3-5.9-0.6-8.8-1L484.8,57.1z"/>
<path class="st0" d="M480.1,64.1c3.5-0.2,7-0.4,10.4-0.6s7-0.3,10.4-0.4c1.7,0,3.5-0.2,5.2-0.3c1.7-0.1,3.5-0.1,5.2,0.1
	c1.7,0.1,3.5,0.4,5.2,0.7c1.8,0.3,3.5,0.7,5.2,1.3v0.4c-1.7,0.5-3.5,0.8-5.2,1.1c-1.7,0.2-3.5,0.4-5.2,0.5c-1.7,0.1-3.5,0-5.2-0.1
	c-1.7-0.2-3.5-0.3-5.2-0.5c-3.5-0.2-7-0.5-10.4-0.8s-6.9-0.6-10.4-1L480.1,64.1z"/>
<text transform="matrix(1 0 0 1 49.17 115.97)" class="st5 st6 st7">Market</text>
<text transform="matrix(1 0 0 1 284.21 115.97)" class="st8 st6 st7">Match</text>
</svg>
