<svg id="Capa_1" data-name="Capa 1" xmlns="http://www.w3.org/2000/svg" viewBox="0 0 800 154.01"><title>1-10</title><path d="M736.39,97.76l-42.5,1.47-21.26.7-.66,0h-.22a3,3,0,0,1-.41,0,2.41,2.41,0,0,1-.78-.27,2.62,2.62,0,0,1-1.33-2.82,1.74,1.74,0,0,1,.11-.39l.07-.2.13-.32.26-.64c.18-.43.37-.86.58-1.29a11.28,11.28,0,0,1,.76-1.36c.08-.12.18-.25.29-.39a3,3,0,0,1,.33-.35c.19-.18.38-.38.58-.55a18.5,18.5,0,0,1,2.4-1.7,66.94,66.94,0,0,1,9.93-4.57c1.63-.63,3.38-1.29,5.11-1.83s3.46-1,5.2-1.5c3.46-.92,6.94-1.74,10.43-2.5s7-1.45,10.63-1.94,7.09-.86,10.63-1.24L737.26,75l.63-.06.33-.07a2.93,2.93,0,0,0,.64-.25,2.82,2.82,0,0,0,1-.9,5.24,5.24,0,0,0,.66-1.66l.8-2.54c2.14-6.76,4.25-13.53,6.47-20.25l3.06,4.22c-7.19.13-14.37.11-21.55.07s-14.37-.16-21.56-.37-14.37-.4-21.56-.71q-5.38-.23-10.78-.53a7.17,7.17,0,0,1-1.55-.18,5.12,5.12,0,0,1-1.51-.67,5,5,0,0,1-1.2-1.1l-.81-1.12c-1.06-1.45-2.08-2.93-3.12-4.4l.48-.4c1.25,1.29,2.53,2.57,3.78,3.87l.91,1a3.43,3.43,0,0,0,.88.6,3.27,3.27,0,0,0,1,.28,5.66,5.66,0,0,0,1.14,0q5.39-.37,10.77-.68,10.77-.63,21.54-1c7.18-.31,14.37-.47,21.55-.69S743.63,47,750.81,47l4.51,0-1.46,4.2c-2.31,6.7-4.74,13.36-7.15,20l-.9,2.5c-.16.45-.25.73-.53,1.44a8.57,8.57,0,0,1-1,1.7,8.38,8.38,0,0,1-3,2.48,8.68,8.68,0,0,1-1.86.63c-.31.07-.65.11-1,.15l-.7,0L727.12,81c-3.52.28-7,.56-10.52.92s-6.89,1-10.34,1.59-6.89,1.35-10.3,2.15c-1.7.41-3.4.83-5.06,1.31s-3.26,1-4.94,1.61a63.72,63.72,0,0,0-9.5,4,15.31,15.31,0,0,0-2,1.31l-.4.35a1.37,1.37,0,0,0-.13.13.61.61,0,0,0-.11.14,7.07,7.07,0,0,0-.56.94c-.19.36-.37.74-.55,1.12l-.26.59-.12.29s-.06.14-.05.11,0,0,0-.08a.52.52,0,0,0-.28-.57,1,1,0,0,0-.16-.06h.7l21.26.09,42.53.21Z" fill="#1a1a1a"/><path d="M667.46,45.59c-.44.23-1.5-.91-3.11-2.91a8.89,8.89,0,0,0-8.72-3.49c-1.16.19-2.91-.78-2.52-1.75.1-.26,1.47-.9,7.08,1.07,1.49.42,5.13,1.65,6.69,4.17C667.37,43.49,667.82,45.39,667.46,45.59Z" fill="none" stroke="#1a1a1a" stroke-miterlimit="10" stroke-width="6.2"/><path d="M684.13,105.31a5,5,0,0,0-5.23,5.23,4.9,4.9,0,0,0,4.84,4.27,5,5,0,0,0,4.85-5.43A4.86,4.86,0,0,0,684.13,105.31Z" fill="none" stroke="#1a1a1a" stroke-miterlimit="10" stroke-width="3.1"/><path d="M723.3,105.31a5,5,0,0,0-5.24,5.23,4.92,4.92,0,0,0,4.85,4.27,5,5,0,0,0,4.85-5.43A4.86,4.86,0,0,0,723.3,105.31Z" fill="none" stroke="#1a1a1a" stroke-miterlimit="10" stroke-width="3.1"/><line x1="740.29" y1="50.32" x2="732.13" y2="78.12" fill="none" stroke="#1a1a1a" stroke-miterlimit="10" stroke-width="1.55"/><line x1="730.8" y1="50.32" x2="723.44" y2="79.03" fill="none" stroke="#1a1a1a" stroke-miterlimit="10" stroke-width="1.55"/><line x1="721.94" y1="49.85" x2="715.57" y2="79.72" fill="none" stroke="#1a1a1a" stroke-miterlimit="10" stroke-width="1.55"/><line x1="713.1" y1="50.32" x2="706.62" y2="81.39" fill="none" stroke="#1a1a1a" stroke-miterlimit="10" stroke-width="1.55"/><line x1="704.69" y1="50.24" x2="697.62" y2="83.33" fill="none" stroke="#1a1a1a" stroke-miterlimit="10" stroke-width="1.55"/><line x1="696.15" y1="49.85" x2="688.98" y2="84.95" fill="none" stroke="#1a1a1a" stroke-miterlimit="10" stroke-width="1.55"/><path d="M673.49,50.57,681.31,66a26,26,0,0,1,2,5.21l3.93,14.93" fill="none" stroke="#1a1a1a" stroke-miterlimit="10" stroke-width="2.91"/><line x1="687.23" y1="50.71" x2="683.07" y2="70.33" fill="none" stroke="#1a1a1a" stroke-miterlimit="10" stroke-width="1.55"/><line x1="748.09" y1="58.34" x2="678" y2="59.44" fill="none" stroke="#1a1a1a" stroke-miterlimit="10" stroke-width="1.55"/><line x1="744.87" y1="67.87" x2="682.58" y2="68.27" fill="none" stroke="#1a1a1a" stroke-miterlimit="10" stroke-width="1.55"/><path d="M640.61,50.53c2.19-.23,4.38-.35,6.57-.53s4.38-.26,6.57-.34c1.09,0,2.19-.16,3.28-.25a15.64,15.64,0,0,1,3.28.1,23.58,23.58,0,0,1,3.25.7,14.81,14.81,0,0,1,3.23,1.29l0,.39a15.28,15.28,0,0,1-3.31,1,23.55,23.55,0,0,1-3.3.45,15.58,15.58,0,0,1-3.27-.14c-1.08-.17-2.17-.37-3.26-.49-2.17-.24-4.35-.52-6.52-.82s-4.35-.63-6.52-1Z" fill="#1a1a1a"/><path d="M635.76,57.12c3-.24,5.89-.38,8.84-.58s5.89-.29,8.83-.39c1.48,0,3-.17,4.42-.27a28.2,28.2,0,0,1,4.41.08,41.38,41.38,0,0,1,4.4.67,24.79,24.79,0,0,1,4.39,1.27v.39a25.59,25.59,0,0,1-4.44,1.07,44.21,44.21,0,0,1-4.42.48,27.09,27.09,0,0,1-4.41-.12c-1.47-.16-2.94-.35-4.4-.46q-4.41-.34-8.81-.78c-2.94-.33-5.88-.6-8.81-1Z" fill="#1a1a1a"/><path d="M631.1,64.1c3.48-.24,7-.38,10.44-.58s7-.29,10.43-.39c1.74-.05,3.48-.17,5.22-.27a39.37,39.37,0,0,1,5.21.08c1.74.14,3.47.37,5.2.67a33.27,33.27,0,0,1,5.19,1.27v.39a34.8,34.8,0,0,1-5.24,1.07q-2.61.36-5.22.48a37.78,37.78,0,0,1-5.21-.12c-1.73-.16-3.47-.35-5.2-.46-3.47-.23-6.95-.49-10.41-.78s-6.94-.59-10.41-1Z" fill="#1a1a1a"/><path d="M67.45,84.17V116H55.7V61.13h11l19,32.9,19.59-32.9h10.38V116H103.94V84.63L90,110.09H81.81Z" fill="#010101"/><path d="M159.16,112.11a24.47,24.47,0,0,1-14.36,4.51q-8.61,0-14.1-4.47a14,14,0,0,1-5.48-11.26,14.48,14.48,0,0,1,6-12.34q6-4.44,15.41-5.22c4.18-.48,7.09-1.28,8.75-2.39a5.15,5.15,0,0,0,2.48-4.47,6.07,6.07,0,0,0-2.45-4.86,10.28,10.28,0,0,0-6.69-2A14,14,0,0,0,137.49,75l-10.71-3.59q7.46-11.62,21.94-11.63,9.47,0,15,5.16t5.91,13.78V108.2a40.65,40.65,0,0,0,.65,7.77h-9.79A18,18,0,0,1,159.16,112.11Zm-.65-21.54a22.37,22.37,0,0,1-8,2.16q-7.77.84-10.68,2.84a6,6,0,0,0-2.9,5.12,5.21,5.21,0,0,0,2.48,4.41,11.45,11.45,0,0,0,6.66,1.73,13.48,13.48,0,0,0,8.49-3.1q3.92-3.11,3.91-9.5Z" fill="#010101"/><path d="M192.72,64.72a17.76,17.76,0,0,1,12.47-4.9,23.56,23.56,0,0,1,12.2,3.2l-6.85,8.75a9.93,9.93,0,0,0-5.35-1.5,10.77,10.77,0,0,0-7.84,3.23q-3.25,3.24-3.26,11.78V116H182.34V61.13h9.2Z" fill="#010101"/><polygon points="243.71 88.54 267.86 115.96 253.24 115.96 233.26 93.34 233.26 115.96 221.51 115.96 221.51 61.13 233.26 61.13 233.26 83.73 253.17 61.13 267.86 61.13 243.71 88.54" fill="#010101"/><path d="M284.63,93.12a13.94,13.94,0,0,0,3.17,9.53q3.36,4.17,10.15,4.18,7.44,0,11.23-5.62l10.64,3.14q-6.13,12.27-21.87,12.27-11.16,0-18.31-7.38t-7.15-20.69q0-12.66,6.82-20.37t18-7.7q11.16,0,18,7.7t6.82,20.37a37.82,37.82,0,0,1-.26,4.57ZM310,84a13.88,13.88,0,0,0-3.17-9.53q-3.36-4.19-9.49-4.18t-9.5,4.18A13.93,13.93,0,0,0,284.63,84Z" fill="#010101"/><path d="M357.29,61.07V70.2H345.54V99.65a6.75,6.75,0,0,0,2.12,5.22c1.41,1.3,4.62,2,9.63,2V116q-12.8,1.31-18.15-3.72t-5.35-13.91V70.2h-5.22V61.07Z" fill="#010101"/><path d="M379.48,84.17V116H367.73V61.13h11l19,32.9,19.59-32.9h10.38V116H416V84.63l-14,25.46h-8.16Z" fill="#e11b4d"/><path d="M471.2,112.11a24.47,24.47,0,0,1-14.36,4.51q-8.61,0-14.1-4.47a14,14,0,0,1-5.48-11.26,14.48,14.48,0,0,1,6-12.34q6-4.44,15.41-5.22c4.18-.48,7.09-1.28,8.75-2.39a5.15,5.15,0,0,0,2.48-4.47,6.07,6.07,0,0,0-2.45-4.86,10.28,10.28,0,0,0-6.69-2A14,14,0,0,0,449.53,75l-10.71-3.59q7.46-11.62,21.94-11.63,9.47,0,15,5.16t5.91,13.78V108.2a40.65,40.65,0,0,0,.65,7.77h-9.79A17.43,17.43,0,0,1,471.2,112.11Zm-.65-21.54a22.37,22.37,0,0,1-8,2.16q-7.77.84-10.68,2.84a6,6,0,0,0-2.9,5.12,5.18,5.18,0,0,0,2.48,4.41,11.45,11.45,0,0,0,6.66,1.73,13.43,13.43,0,0,0,8.48-3.1q3.93-3.11,3.92-9.5Z" fill="#e11b4d"/><path d="M519.18,61.07V70.2H507.43V99.65a6.76,6.76,0,0,0,2.13,5.22c1.41,1.3,4.62,2,9.62,2V116q-12.79,1.31-18.14-3.72t-5.36-13.91V70.2h-5.22V61.07Z" fill="#e11b4d"/><path d="M567.23,99.12l10.12,5.29q-7.9,12.21-23.57,12.21a26.57,26.57,0,0,1-19-7.38q-7.8-7.38-7.8-20.69t7.47-20.7q7.49-7.36,19.29-7.37,15.68,0,23.44,11.62L567,77.58a14.85,14.85,0,0,0-13.19-7.31,13.57,13.57,0,0,0-10.9,4.86q-4.11,4.88-4.11,13.42T542.88,102a13.55,13.55,0,0,0,10.9,4.87Q562.27,106.83,567.23,99.12Z" fill="#e11b4d"/><path d="M631.47,88.48V115.9H619.72V89.78q0-6.59-3.26-9.82a10.77,10.77,0,0,0-7.84-3.23,10.25,10.25,0,0,0-7.83,3.56q-3.27,3.55-3.27,11.45h-.06V116H585.71V61.13h11.75v9.54a18.22,18.22,0,0,1,11.16-3.73A23.24,23.24,0,0,1,624.75,73,19.91,19.91,0,0,1,631.47,88.48Z" fill="#e11b4d"/></svg>